PathFileType	4	(X/Y/Z)	C:/Users/Carlo/Dropbox/Carlos/SARAH/CongressoMarcha2025/WorkshopOpenSim/C3D/Caso02/Walking04.c3d.trc
DataRate	CameraRate	NumFrames	NumMarkers	Units	OrigDataRate	OrigDataStartFrame	OrigNumFrames
100.000000	100.000000	2	197	mm	100.000000	280	321
Frame#	Time	LFHD			RFHD			LBHD			RBHD			C7			STRN			LSHO			LUPA			LELB			LFRM			LWRA			LFIN			RSHO			RUPA			RELB			RFRM			RWRA			RWRB			RFIN			RASI			LANK			LHEE			LTOE			RTHI			RKNE			RTIB			RANK			RHEE			RTOE			PELO			PELA			PELL			PELP			LFEO			LFEA			LFEL			LFEP			LTIO			LTIA			LTIL			LTIP			LFOO			LFOA			LFOL			LFOP			RFEO			RFEA			RFEL			RFEP			RTIO			RTIA			RTIL			RTIP			RFOO			RFOA			RFOL			RFOP			LTOO			LTOA			LTOL			LTOP			RTOO			RTOA			RTOL			RTOP			HEDO			HEDA			HEDL			HEDP			LCLO			LCLA			LCLL			LCLP			RCLO			RCLA			RCLL			RCLP			TRXO			TRXA			TRXL			TRXP			LHUO			LHUA			LHUL			LHUP			LRAO			LRAA			LRAL			LRAP			LHNO			LHNA			LHNL			LHNP			RHUO			RHUA			RHUL			RHUP			RRAO			RRAA			RRAL			RRAP			RHNO			RHNA			RHNL			RHNP			LWRB			LTIB			LASI			LTHI			LKNE			RPSI			CLAV			RBAK			LPSI			T10			LHipAngles			LKneeAngles			LAbsAnkleAngle			LAnkleAngles			RHipAngles			RKneeAngles			RAnkleAngles			RAbsAnkleAngle			LPelvisAngles			RPelvisAngles			LFootProgressAngles			RFootProgressAngles			RNeckAngles			LNeckAngles			RSpineAngles			LSpineAngles			LShoulderAngles			LElbowAngles			LWristAngles			RShoulderAngles			RElbowAngles			RWristAngles			RThoraxAngles			LThoraxAngles			RHeadAngles			LHeadAngles			LHipPower			LKneePower			LAnklePower			RHipPower			RKneePower			RAnklePower			LWaistPower			RWaistPower			LNeckPower			RNeckPower			LShoulderPower			RShoulderPower			LElbowPower			RElbowPower			LWristPower			RWristPower			LGroundReactionForce			LNormalisedGRF			RGroundReactionForce			RNormalisedGRF			LAnkleForce			RAnkleForce			RKneeForce			LKneeForce			RHipForce			LHipForce			LWaistForce			RWaistForce			LNeckForce			RNeckForce			LShoulderForce			RShoulderForce			LElbowForce			RElbowForce			LWristForce			RWristForce			LGroundReactionMoment			RGroundReactionMoment			LAnkleMoment			RAnkleMoment			RKneeMoment			LKneeMoment			RHipMoment			LHipMoment			LWaistMoment			RWaistMoment			LNeckMoment			RNeckMoment			LShoulderMoment			RShoulderMoment			LElbowMoment			RElbowMoment			LWristMoment			RWristMoment			CentreOfMass			CentreOfMassFloor			
		X1	Y1	Z1	X2	Y2	Z2	X3	Y3	Z3	X4	Y4	Z4	X5	Y5	Z5	X6	Y6	Z6	X7	Y7	Z7	X8	Y8	Z8	X9	Y9	Z9	X10	Y10	Z10	X11	Y11	Z11	X12	Y12	Z12	X13	Y13	Z13	X14	Y14	Z14	X15	Y15	Z15	X16	Y16	Z16	X17	Y17	Z17	X18	Y18	Z18	X19	Y19	Z19	X20	Y20	Z20	X21	Y21	Z21	X22	Y22	Z22	X23	Y23	Z23	X24	Y24	Z24	X25	Y25	Z25	X26	Y26	Z26	X27	Y27	Z27	X28	Y28	Z28	X29	Y29	Z29	X30	Y30	Z30	X31	Y31	Z31	X32	Y32	Z32	X33	Y33	Z33	X34	Y34	Z34	X35	Y35	Z35	X36	Y36	Z36	X37	Y37	Z37	X38	Y38	Z38	X39	Y39	Z39	X40	Y40	Z40	X41	Y41	Z41	X42	Y42	Z42	X43	Y43	Z43	X44	Y44	Z44	X45	Y45	Z45	X46	Y46	Z46	X47	Y47	Z47	X48	Y48	Z48	X49	Y49	Z49	X50	Y50	Z50	X51	Y51	Z51	X52	Y52	Z52	X53	Y53	Z53	X54	Y54	Z54	X55	Y55	Z55	X56	Y56	Z56	X57	Y57	Z57	X58	Y58	Z58	X59	Y59	Z59	X60	Y60	Z60	X61	Y61	Z61	X62	Y62	Z62	X63	Y63	Z63	X64	Y64	Z64	X65	Y65	Z65	X66	Y66	Z66	X67	Y67	Z67	X68	Y68	Z68	X69	Y69	Z69	X70	Y70	Z70	X71	Y71	Z71	X72	Y72	Z72	X73	Y73	Z73	X74	Y74	Z74	X75	Y75	Z75	X76	Y76	Z76	X77	Y77	Z77	X78	Y78	Z78	X79	Y79	Z79	X80	Y80	Z80	X81	Y81	Z81	X82	Y82	Z82	X83	Y83	Z83	X84	Y84	Z84	X85	Y85	Z85	X86	Y86	Z86	X87	Y87	Z87	X88	Y88	Z88	X89	Y89	Z89	X90	Y90	Z90	X91	Y91	Z91	X92	Y92	Z92	X93	Y93	Z93	X94	Y94	Z94	X95	Y95	Z95	X96	Y96	Z96	X97	Y97	Z97	X98	Y98	Z98	X99	Y99	Z99	X100	Y100	Z100	X101	Y101	Z101	X102	Y102	Z102	X103	Y103	Z103	X104	Y104	Z104	X105	Y105	Z105	X106	Y106	Z106	X107	Y107	Z107	X108	Y108	Z108	X109	Y109	Z109	X110	Y110	Z110	X111	Y111	Z111	X112	Y112	Z112	X113	Y113	Z113	X114	Y114	Z114	X115	Y115	Z115	X116	Y116	Z116	X117	Y117	Z117	X118	Y118	Z118	X119	Y119	Z119	X120	Y120	Z120	X121	Y121	Z121	X122	Y122	Z122	X123	Y123	Z123	X124	Y124	Z124	X125	Y125	Z125	X126	Y126	Z126	X127	Y127	Z127	X128	Y128	Z128	X129	Y129	Z129	X130	Y130	Z130	X131	Y131	Z131	X132	Y132	Z132	X133	Y133	Z133	X134	Y134	Z134	X135	Y135	Z135	X136	Y136	Z136	X137	Y137	Z137	X138	Y138	Z138	X139	Y139	Z139	X140	Y140	Z140	X141	Y141	Z141	X142	Y142	Z142	X143	Y143	Z143	X144	Y144	Z144	X145	Y145	Z145	X146	Y146	Z146	X147	Y147	Z147	X148	Y148	Z148	X149	Y149	Z149	X150	Y150	Z150	X151	Y151	Z151	X152	Y152	Z152	X153	Y153	Z153	X154	Y154	Z154	X155	Y155	Z155	X156	Y156	Z156	X157	Y157	Z157	X158	Y158	Z158	X159	Y159	Z159	X160	Y160	Z160	X161	Y161	Z161	X162	Y162	Z162	X163	Y163	Z163	X164	Y164	Z164	X165	Y165	Z165	X166	Y166	Z166	X167	Y167	Z167	X168	Y168	Z168	X169	Y169	Z169	X170	Y170	Z170	X171	Y171	Z171	X172	Y172	Z172	X173	Y173	Z173	X174	Y174	Z174	X175	Y175	Z175	X176	Y176	Z176	X177	Y177	Z177	X178	Y178	Z178	X179	Y179	Z179	X180	Y180	Z180	X181	Y181	Z181	X182	Y182	Z182	X183	Y183	Z183	X184	Y184	Z184	X185	Y185	Z185	X186	Y186	Z186	X187	Y187	Z187	X188	Y188	Z188	X189	Y189	Z189	X190	Y190	Z190	X191	Y191	Z191	X192	Y192	Z192	X193	Y193	Z193	X194	Y194	Z194	X195	Y195	Z195	X196	Y196	Z196	X197	Y197	Z197	

281	2.8	-1867.476806640626	1720.416503906251	469.7268066406252	-1893.568969726563	1727.993530273438	344.5875244140626	-1724.218139648438	1669.152587890626	435.5422058105471	-1763.147827148438	1687.966674804688	301.2106323242189	-1725.495239257813	1509.328369140625	363.5985717773439	-1908.449584960938	1265.090087890625	359.137664794922	-1770.302978515626	1437.42724609375	571.6441650390627	-1782.228149414063	1267.232177734375	615.1448974609377	-1777.355224609376	1094.654541015625	634.0594482421877	-1821.256958007813	974.834838867188	653.6511840820315	-1910.211669921876	862.273071289063	606.6358032226565	-1916.219726562501	782.3484497070317	660.443054199219	-1787.966186523438	1452.045043945313	150.3870849609376	-1762.619384765626	1239.327880859375	84.50746154785159	-1738.407592773438	1122.1982421875	68.21976470947268	-1796.815673828126	987.0119628906255	55.16138458251956	-1823.804199218751	861.5330200195317	87.29074859619143	-1757.130859375001	860.9064331054692	46.91405868530275	-1811.085815429688	786.4851074218755	39.00105285644533	-1844.199829101563	1027.390380859375	244.8075561523439	-1778.363891601563	70.29949188232425	457.4860839843752	-1722.810668945313	33.72361755371095	415.2680969238284	-1918.038818359376	38.57730865478517	425.9423828125002	-1874.466552734376	668.8641357421877	162.5994415283204	-1879.688110351563	520.9281005859377	179.7698516845704	-1707.767211914063	348.2130737304689	179.9863891601563	-1578.785888671876	215.4549713134767	203.4257812500001	-1520.216186523438	228.0942382812501	264.6621704101564	-1644.521118164063	85.65996551513675	235.8065795898439	-1799.912231445313	926.1003417968755	354.0443725585939	-1929.805908203126	927.442260742188	349.5274353027345	-1804.439331054688	925.127075195313	483.9408874511721	-1798.604980468751	1056.06884765625	355.0637512207032	-1816.658813476563	513.518981933594	418.7503967285159	-2206.778076171876	527.8977050781252	286.5347290039064	-1948.794799804688	518.1157226562502	809.1345214843755	-1801.565429687501	925.4084472656255	419.009216308594	-1775.054321289063	71.23297119140628	412.6176757812502	-2194.926513671876	32.1775245666504	380.8332824707032	-1806.156860351563	62.46072006225589	834.2619628906255	-1814.654907226563	492.2151184082034	418.455017089844	-1905.585327148438	62.58272552490237	432.6103210449221	-1901.316894531251	247.3288879394532	429.1970520019534	-1894.574218750001	65.7365417480469	617.0821533203127	-1721.135986328126	58.11916351318362	421.6768798828127	-1856.937866210938	510.5450134277346	234.8594818115236	-2245.266357421876	543.5876464843752	401.4547119140627	-1697.556030273438	437.8041992187502	620.8010864257815	-1798.258911132813	926.792114257813	289.0795898437501	-1577.416748046876	218.8300170898439	248.2781677246095	-1853.735595703126	-44.63839721679689	276.5380249023439	-1565.769165039063	247.5433502197267	629.8619384765627	-1842.140380859376	495.1020812988284	235.5698242187501	-1653.332397460938	108.8617858886719	222.1074829101564	-1799.440185546876	230.572723388672	224.4589691162111	-1663.888793945313	92.53433990478518	411.2861938476565	-1532.057250976563	254.0734710693361	241.4075775146486	-1967.068481445313	64.07055664062503	436.2548522949221	-1965.645629882813	125.6526184082032	435.1170959472659	-1963.398071289063	65.12180328369143	497.7454223632815	-1905.585327148438	62.58264923095706	432.610290527344	-1693.757446289063	60.4578666687012	215.6741027832032	-1742.460083007813	101.0282058715821	216.4579315185548	-1697.276245117188	55.0153732299805	278.7337036132814	-1653.332397460938	108.861801147461	222.1074829101564	-1727.706787109376	1601.470214843751	356.5743408203126	-1935.605224609376	1670.818359375001	415.4931640625002	-1673.014770507813	1579.256835937501	575.7036132812502	-1654.978759765626	1816.411376953126	360.2110900878907	-1772.535400390626	1381.877319335938	555.115173339844	-1972.380249023438	1364.482177734375	640.567321777344	-1764.142944335938	1590.709716796876	617.2537231445315	-1859.335327148438	1442.118774414063	364.3814697265626	-1789.007934570313	1395.47314453125	163.1355895996094	-1995.551757812501	1383.62939453125	93.70194244384768	-1792.927124023438	1182.622192382813	211.1014404296876	-1859.335327148438	1442.11865234375	364.3814697265626	-1859.335449218751	1442.118774414063	364.3814392089845	-2076.990478515626	1427.798950195313	366.2343139648439	-1861.563476562501	1447.770263671875	146.3327026367188	-1845.069213867188	1224.529541015625	358.5960693359376	-1751.341430664063	1091.268920898438	599.3597412109377	-1459.571655273438	1117.467163085938	631.672546386719	-1715.546508789063	1049.790893554688	309.7766418457032	-1772.535400390626	1381.877319335938	555.1151123046877	-1876.443969726563	846.360961914063	618.9749755859377	-1650.082519531251	734.2593383789065	663.011901855469	-1845.302124023438	810.2748413085942	367.0355224609376	-1760.098754882813	1074.125244140625	600.7327880859377	-1938.345947265626	699.2327270507815	659.2081298828127	-1994.638427734376	761.623962402344	800.755981445313	-1796.583496093751	659.762634277344	732.983581542969	-1876.443969726563	846.3610839843755	618.9750976562502	-1711.144531250001	1122.397827148438	102.1157608032227	-1436.811279296875	1209.369873046875	62.95753860473636	-1766.233642578126	1169.53564453125	-179.1305541992188	-1789.007812500001	1395.47314453125	163.1355743408204	-1786.980834960938	859.3851928710942	72.88835906982425	-1545.711669921876	796.245971679688	15.0475082397461	-1835.539794921876	900.9354858398442	-175.0200805664063	-1716.453125000001	1103.986938476563	100.0698547363282	-1809.891601562501	702.939392089844	46.90623474121095	-1890.757568359376	737.0465087890627	-87.15577697753909	-1946.313842773438	708.995300292969	130.7366180419922	-1786.980957031251	859.3851928710942	72.8883972167969	-1848.092041015626	834.594848632813	643.5402832031252	-1802.219116210938	302.3393859863282	487.4918518066409	-1851.749633789063	1025.767211914063	461.4368591308596	-1843.692138671876	747.1672363281252	523.9254150390627	-1836.054443359376	514.1937255859377	476.0531311035159	-1656.239013671876	1021.165100097657	285.7307128906251	-1866.319946289063	1441.6591796875	364.4408569335939	-1641.063842773438	1352.830688476563	309.3020629882814	-1663.299682617188	1028.178344726563	424.0699157714846	-1655.136352539063	1255.346069335938	357.4540100097657	-0.4658785462379458	16.73127365112305	1.507071495056153	3.106855154037477	-14.26760292053223	6.840850830078129	0	0	6.794668674468998	2.361626863479615	-7.578262329101566	6.854816436767582	-6.642122268676761	25.27734947204591	7.675102233886722	24.46235466003419	-5.426873683929445	48.02877426147464	2.151888132095338	-10.24297142028809	-6.224566936492923	0	0	-6.124975204467777	-0.4493620395660403	1.991547465324403	-0.5763095617294314	0.4493620395660403	-1.991547465324403	-0.5763095617294314	-1.060006618499756	-3.391342878341677	-91.38624572753909	-0.7121623158454897	-5.824743747711183	-39.86729812622072	-5.036465167999269	-13.10381889343262	-21.90420150756837	5.036465167999269	13.10381889343262	-21.90420150756837	-1.02931833267212	-2.591774940490724	4.337053298950197	1.02931833267212	2.591774940490724	4.337053298950197	10.15725135803223	6.909214973449711	-0.3293146789073945	1.590277359294756e-15	4.312832209418806e-12	31.35686492919923	9.208885192871097	107.8163833618165	-5.858636379241945	10.77695941925049	10.0304183959961	-11.97941970825196	0	2.388596482064132e-12	32.14006805419923	1.47135329246521	109.8220901489258	-8.205700874328617	1.519793510437013	0.4868502318859103	3.751247882843019	-1.519793510437013	-0.4868502318859103	3.751247882843019	0.9181988835334782	15.0495948791504	18.69390869140626	-0.9181988835334782	-15.0495948791504	18.69390869140626	nan	nan	nan	nan	nan	nan	nan	nan	nan	0	-0.2866979241371156	0	0	0.01694330573081971	0	0	0.03263000026345254	0	nan	nan	nan	nan	nan	nan	nan	nan	nan	nan	nan	nan	0	-0.02015352435410023	0	0	-0.01239394303411246	0	0	0.00986274424940348	0	0	-0.01555061154067517	0	0	0.0002949960762634874	0	0	-0.001093170372769237	0	nan	nan	nan	nan	nan	nan	nan	nan	nan	nan	nan	nan	nan	nan	nan	-0.01131063513457775	-0.00276043126359582	-0.0913474187254906	-0.02038151025772095	0.139272764325142	-0.276351422071457	nan	nan	nan	-0.0296834744513035	1.120514035224915	-0.4871602058410647	nan	nan	nan	nan	nan	nan	nan	nan	nan	nan	nan	nan	nan	nan	nan	-0.00826301705092192	0.4904122054576876	0.08012586086988452	0.0832503363490105	0.4421283304691317	0.09832432121038442	0.007557664532214407	0.2251677811145784	-0.06940445303916934	0.02982344292104246	0.1953265666961671	-0.09807427227497106	-0.01138142682611943	0.06560000777244571	0.0120479753240943	0.02959736064076425	0.06048416718840602	0.01955064199864865	nan	nan	nan	nan	nan	nan	nan	nan	nan	3.789561349149106e-16	-2.655136108398438	-16.67048645019532	35.6758270263672	-3.579154014587404	48.85404205322268	nan	nan	nan	2.736754894256593	-19.48519325256348	148.6976928710938	nan	nan	nan	nan	nan	nan	nan	nan	nan	nan	nan	nan	nan	nan	nan	-2.563727855682374	0.5395605564117434	11.82039260864258	18.31515693664551	-2.242698907852174	-8.252738952636722	-0.7466421723365786	0.1768650859594346	-13.94891071319581	4.445338726043703	0.1442937403917313	-25.94301795959474	0.8905838727951054	-5.921189641132701e-16	0.4777567684650423	2.334866285324098	9.473903372872764e-17	1.410017967224122	-1787.767700195313	1005.875854492188	352.3580017089845	-1787.767700195313	0	352.3580017089845	
282	2.81	-1878.807983398438	1721.651977539063	469.8198547363284	-1904.461181640626	1728.698730468751	344.7029724121095	-1735.391967773438	1670.658935546876	435.7756652832034	-1774.408325195313	1689.019653320313	301.380340576172	-1736.210327148438	1510.3916015625	364.5101318359376	-1919.087646484376	1266.22607421875	359.7710266113282	-1781.875854492188	1439.213134765625	572.521667480469	-1795.298217773438	1269.203247070313	616.3286743164065	-1793.418457031251	1096.581298828125	635.758483886719	-1840.421508789063	977.6859741210942	655.1834716796877	-1932.387817382813	867.6205444335942	608.1300048828127	-1940.333496093751	787.9516601562505	662.0852050781252	-1797.939208984376	1453.2099609375	151.1390991210938	-1770.557739257813	1240.620483398438	85.55886077880862	-1745.287841796876	1123.81787109375	69.63275146484378	-1801.780151367188	987.9611816406255	55.87536239624026	-1827.007446289063	861.887573242188	87.65811157226565	-1760.152832031251	862.5559692382817	47.54861068725587	-1812.691650390626	787.075073242188	39.16007232666017	-1855.350708007813	1028.617919921875	245.7754669189454	-1778.407836914063	70.51625061035159	457.3686523437502	-1722.755004882813	33.94326019287111	415.2901611328127	-1918.150634765626	38.51691818237306	425.8846435546877	-1891.901367187501	672.2322998046877	162.8583374023438	-1899.170898437501	523.9502563476565	180.6458740234376	-1732.026245117188	346.2016906738282	181.1537780761719	-1607.402221679688	209.2296752929689	204.6770019531251	-1548.231323242188	218.6486968994142	266.245330810547	-1679.922851562501	83.66505432128909	234.8924407958986	-1810.442382812501	927.279418945313	354.5941772460939	-1940.354980468751	928.3845214843755	350.5887145996095	-1814.457519531251	926.140258789063	484.5061340332034	-1809.372924804688	1057.248779296875	355.7669067382814	-1819.521484375001	513.773620605469	419.2504577636721	-2210.977783203126	521.159118652344	288.4284057617189	-1950.326416015626	515.9108886718752	810.776245117188	-1811.839355468751	926.5057983398442	419.5639648437502	-1774.617187500001	71.58135223388675	412.5412597656252	-2194.058349609376	29.5406837463379	376.0731811523439	-1810.260009765626	61.56672668457034	834.0354614257817	-1817.359741210938	492.4856262207034	418.927429199219	-1905.135620117188	62.68268203735354	432.5072326660159	-1901.207885742188	247.4376678466798	429.1626586914065	-1894.163452148438	65.78891754150393	616.982116699219	-1720.676391601563	58.56381988525393	421.6053161621096	-1875.842407226563	513.0415039062502	235.3910369873048	-2261.156250000001	552.5726318359377	407.4615478515627	-1712.413208007813	436.6191406250002	618.9117431640627	-1809.045410156251	928.0530395507817	289.6242675781251	-1606.051513671876	212.5536651611329	249.5337371826173	-1890.708984375001	-41.73370361328126	276.9487915039064	-1594.564697265626	240.820770263672	630.994812011719	-1861.554321289063	497.1277465820315	236.1400756835939	-1687.498779296876	107.1402282714844	221.3307952880861	-1826.842651367188	236.5427703857423	223.5454711914064	-1700.997436523438	89.37222290039065	410.1923828125002	-1558.783203125001	245.3643035888673	243.5346679687501	-1966.621948242188	64.05562591552737	436.1412353515627	-1965.312744140626	125.6406250000001	435.0264587402346	-1962.964477539063	65.09094238281253	497.6328735351565	-1905.135498046876	62.68268585205081	432.5072021484377	-1730.404174804688	61.06552886962893	213.9295196533204	-1776.852050781251	104.1997070312501	214.6677856445314	-1734.903686523438	55.14284896850589	276.8833923339845	-1687.498901367188	107.1402435302735	221.3307952880861	-1738.541015625001	1602.695068359376	356.9010314941407	-1946.580200195313	1671.673217773438	415.7570800781252	-1683.681762695313	1581.156005859376	576.0559082031252	-1666.343505859376	1817.823974609376	359.9718017578126	-1784.062744140626	1383.611083984375	556.1629638671877	-1984.242919921876	1366.5927734375	640.7658691406252	-1775.843994140626	1592.588623046876	617.646423339844	-1869.968017578126	1443.26123046875	364.9000244140626	-1799.043701171876	1396.635375976563	163.871078491211	-2005.366943359376	1384.894165039063	93.80213165283206	-1803.198852539063	1183.78564453125	211.7724456787111	-1869.967895507813	1443.260986328125	364.8999023437501	-1869.967895507813	1443.260986328125	364.8999633789064	-2087.599609375001	1429.02685546875	366.3002014160157	-1871.733886718751	1448.8154296875	146.876693725586	-1855.774536132813	1225.69580078125	359.2422485351564	-1767.792358398438	1092.652221679688	600.8284912109377	-1475.502197265625	1113.925415039063	632.932800292969	-1732.885131835938	1050.141235351563	311.188934326172	-1784.062744140626	1383.611083984375	556.1629638671877	-1898.922241210938	850.8808593750005	620.5101318359377	-1675.383911132813	733.2387695312502	664.7175292968752	-1868.558471679688	813.902954101563	368.5695190429689	-1776.971435546876	1075.728271484375	602.206237792969	-1964.612792968751	705.412292480469	660.9763793945315	-2019.222290039063	769.4443359375005	802.5093383789067	-1823.841918945313	662.3695068359377	734.7651977539065	-1898.922119140626	850.8808593750005	620.5100708007815	-1718.192504882813	1124.338989257813	103.6594619750977	-1444.338012695313	1213.703125	67.25310516357425	-1770.865722656251	1170.990844726563	-178.0440673828126	-1799.043701171876	1396.635498046875	163.8711242675782	-1790.087036132813	860.4203491210942	73.39580535888675	-1547.436401367188	800.657104492188	18.12754058837891	-1836.516723632813	901.542358398438	-174.9162292480469	-1723.225097656251	1105.86474609375	101.5409851074219	-1809.983032226563	703.4272460937502	46.79420471191408	-1891.010620117188	736.4873046875002	-87.71186828613284	-1947.056030273438	706.6719360351565	130.1656494140626	-1790.087036132813	860.420288085938	73.39575958251956	-1870.766479492188	838.4216918945317	645.1162719726565	-1804.285522460938	302.3841552734376	487.7044677734377	-1862.039306640626	1026.72021484375	462.1907958984377	-1850.380859375001	747.2034912109377	524.768981933594	-1838.692016601563	514.086853027344	476.6319580078127	-1667.296875000001	1022.792114257813	285.6397399902345	-1876.952880859376	1442.80419921875	364.9448852539064	-1651.684204101563	1353.791137695313	310.6282348632814	-1673.904174804688	1029.43310546875	424.2469177246096	-1665.982421875001	1256.340942382813	358.4856262207032	-0.4915076792240145	16.71563339233399	0.5800123214721682	2.950602054595948	-13.42446613311768	6.254978179931644	0	0	7.11584043502808	2.517398595809937	-8.181080818176273	7.189384460449222	-6.571423530578617	25.84272766113283	8.867532730102543	25.03711891174318	-6.475794792175297	46.95378494262697	2.327945947647096	-10.97535800933838	-4.938461303710939	0	0	-4.847915172576906	-0.5169559121131899	1.76597547531128	-0.4714653789997103	0.5169559121131899	-1.76597547531128	-0.4714653789997103	-1.038661479949952	-3.381537199020388	-91.27915954589847	-0.6718420386314394	-6.704842090606693	-42.95996093750001	-4.896600246429445	-13.27690982818604	-21.77349662780762	4.896600246429445	13.27690982818604	-21.77349662780762	-0.9385120868682866	-2.241969585418702	4.210533618927004	0.9385120868682866	2.241969585418702	4.210533618927004	10.19734001159668	6.606564044952396	0.5909236669540407	0	-3.738741954917303e-12	31.80065345764162	9.281554222106937	107.7782058715821	-5.808773994445803	10.69741439819336	9.691966056823734	-12.59048175811768	-1.590277359294756e-15	5.856991541070003e-12	31.85382652282716	1.497606754302979	110.2412033081055	-8.438394546508793	1.486464381217957	0.3679620325565339	3.732543468475344	-1.486464381217957	-0.3679620325565339	3.732543468475344	0.7752985358238225	15.03263378143311	18.55180931091309	-0.7752985358238225	-15.03263378143311	18.55180931091309	nan	nan	nan	nan	nan	nan	nan	nan	nan	0	-0.09771894663572317	0	0	0.06101021170616153	0	0	0.03660792112350465	0	nan	nan	nan	nan	nan	nan	nan	nan	nan	nan	nan	nan	0	-0.003486070781946184	0	0	-0.01647366955876351	0	0	0.01234640553593636	0	0	-0.01083541288971901	0	0	0.0002844053960870952	0	0	-0.0009908814681693916	0	nan	nan	nan	nan	nan	nan	nan	nan	nan	nan	nan	nan	nan	nan	nan	-0.03841571882367135	-0.003377021523192527	-0.1221725046634675	-0.003584335325285794	0.2128280699253083	-0.2177450954914094	nan	nan	nan	-0.01101780869066716	1.099608302116394	-0.1992866843938829	nan	nan	nan	nan	nan	nan	nan	nan	nan	nan	nan	nan	nan	nan	nan	-0.01948648877441884	0.4378722906112673	0.04826413467526439	0.08379264920949939	0.4136902689933779	0.08509030938148501	-0.007978221401572231	0.1845698654651642	-0.0714218467473984	0.03018730506300928	0.1792090237140656	-0.09602352231740957	-0.01596583798527718	0.05940511450171473	0.01313513144850732	0.03056106716394426	0.05581500381231311	0.01932265982031823	nan	nan	nan	nan	nan	nan	nan	nan	nan	1.136868351805172e-15	0.6465927362442019	-17.77809715270997	35.78929138183595	-0.3673551976680757	55.1008224487305	nan	nan	nan	3.927029132843019	-16.10713577270509	59.64372253417972	nan	nan	nan	nan	nan	nan	nan	nan	nan	nan	nan	nan	nan	nan	nan	4.20779609680176	-0.2886430025100709	3.032569169998171	18.51656913757325	-2.062628507614137	-11.75487709045411	0.9153558611869816	0.2279338538646699	-14.90389442443848	4.113559722900392	0.1275246739387513	-25.938289642334	1.226681470870972	0	0.5393869280815127	2.461755752563477	-3.789561349149106e-16	1.314871549606324	-1798.889770507813	1006.878112792969	353.0386352539064	-1798.889770507813	0	353.0386352539064	
